<svg xmlns="http://www.w3.org/2000/svg" width="227.52" height="131.14" viewBox="0 0 227.52 131.14">
<g id="b871218a-1316-4fd8-905e-ce1379f865a2" data-name="Layer 2">
<g id="b80b2711-1ad0-414a-9cc5-0994dc3e69e1" data-name="Page 1">
<g id="a50fdfe0-9290-44d9-9f1a-b08cb2f1b8bf" data-name="Capa 1">
<polygon points="141.15 91.31 158.83 113.48 202.52 67.04 227.53 66.66 219.14 76.17 171.64 131.14 146.14 131.14 114.04 91.31 141.15 91.31 141.15 91.31" 
style="fill:#00386F;fill-rule:evenodd"/>
<polygon points="86.38 39.83 68.69 17.65 25 64.09 0 64.48 8.38 54.97 55.88 0 81.38 0 113.48 39.83 86.38 39.83 86.38 39.83" style="fill:#00386F;fill-rule:evenodd"/><path d="M117.7,62.48v6.73H145v7.64H92.26V55.93h71.08V48.26H88.24Q74,48.58,74,52.55v26.6q.75,5.23,10.85,5.24h65.38q13.09-.36,13.09-5.24l-.09-16.67Z" style="fill:#00386F;"/></g></g></g></svg>